HIERARCHY
ROOT mPelvis
{
	OFFSET 0.000000 1.067000 -0.000000
	CHANNELS 6 Xposition Yposition Zposition Xrotation Yrotation Zrotation
	JOINT mTorso
	{
		OFFSET 0.000000 0.084000 -0.000000
		CHANNELS 3 Xrotation Yrotation Zrotation
		JOINT mChest
		{
			OFFSET 0.000000 0.205000 -0.015000
			CHANNELS 3 Xrotation Yrotation Zrotation
			JOINT mNeck
			{
				OFFSET 0.000000 0.251000 -0.010000
				CHANNELS 3 Xrotation Yrotation Zrotation
				JOINT mHead
				{
					OFFSET 0.000000 0.076000 0.000000
					CHANNELS 3 Xrotation Yrotation Zrotation
					JOINT mSkull
					{
						OFFSET 0.000000 0.079000 0.000000
						CHANNELS 3 Xrotation Yrotation Zrotation
						End Site
						{
							OFFSET -0.000000 -0.100000 0.000000
						}
					}
					JOINT mEyeRight
					{
						OFFSET -0.036000 0.079000 0.098000
						CHANNELS 3 Xrotation Yrotation Zrotation
						End Site
						{
							OFFSET -0.000000 -0.100000 0.000000
						}
					}
					JOINT mEyeLeft
					{
						OFFSET 0.036000 0.079000 0.098000
						CHANNELS 3 Xrotation Yrotation Zrotation
						End Site
						{
							OFFSET -0.000000 -0.100000 0.000000
						}
					}
					JOINT HEAD
					{
						OFFSET 0.000000 0.070000 0.020000
						CHANNELS 3 Xrotation Yrotation Zrotation
						End Site
						{
							OFFSET -0.000000 -0.100000 0.000000
						}
					}
				}
				JOINT NECK
				{
					OFFSET 0.000000 0.020000 0.000000
					CHANNELS 3 Xrotation Yrotation Zrotation
					End Site
					{
						OFFSET -0.000000 -0.100000 0.000000
					}
				}
			}
			JOINT mCollarLeft
			{
				OFFSET 0.085000 0.165000 -0.021000
				CHANNELS 3 Xrotation Yrotation Zrotation
				JOINT mShoulderLeft
				{
					OFFSET 0.079000 0.000000 -0.000000
					CHANNELS 3 Xrotation Yrotation Zrotation
					JOINT mElbowLeft
					{
						OFFSET 0.248000 0.000000 -0.000000
						CHANNELS 3 Xrotation Yrotation Zrotation
						JOINT mWristLeft
						{
							OFFSET 0.205000 0.000000 -0.000000
							CHANNELS 3 Xrotation Yrotation Zrotation
							JOINT L_HAND
							{
								OFFSET 0.050000 0.000000 0.010000
								CHANNELS 3 Xrotation Yrotation Zrotation
								End Site
								{
									OFFSET 0.000000 -0.100000 0.000000
								}
							}
						}
						JOINT L_LOWER_ARM
						{
							OFFSET 0.100000 0.000000 -0.000000
							CHANNELS 3 Xrotation Yrotation Zrotation
							End Site
							{
								OFFSET 0.000000 -0.100000 0.000000
							}
						}
					}
					JOINT L_UPPER_ARM
					{
						OFFSET 0.120000 0.010000 -0.000000
						CHANNELS 3 Xrotation Yrotation Zrotation
						End Site
						{
							OFFSET 0.000000 -0.100000 0.000000
						}
					}
				}
				JOINT L_CLAVICLE
				{
					OFFSET 0.000000 0.020000 0.020000
					CHANNELS 3 Xrotation Yrotation Zrotation
					End Site
					{
						OFFSET -0.000000 -0.100000 0.000000
					}
				}
			}
			JOINT mCollarRight
			{
				OFFSET -0.085000 0.165000 -0.021000
				CHANNELS 3 Xrotation Yrotation Zrotation
				JOINT mShoulderRight
				{
					OFFSET -0.079000 0.000000 0.000000
					CHANNELS 3 Xrotation Yrotation Zrotation
					JOINT mElbowRight
					{
						OFFSET -0.248000 0.000000 0.000000
						CHANNELS 3 Xrotation Yrotation Zrotation
						JOINT mWristRight
						{
							OFFSET -0.205000 0.000000 0.000000
							CHANNELS 3 Xrotation Yrotation Zrotation
							JOINT R_HAND
							{
								OFFSET -0.050000 0.000000 0.010000
								CHANNELS 3 Xrotation Yrotation Zrotation
								End Site
								{
									OFFSET 0.000000 -0.100000 0.000000
								}
							}
						}
						JOINT R_LOWER_ARM
						{
							OFFSET -0.100000 0.000000 0.000000
							CHANNELS 3 Xrotation Yrotation Zrotation
							End Site
							{
								OFFSET 0.000000 -0.100000 0.000000
							}
						}
					}
					JOINT R_UPPER_ARM
					{
						OFFSET -0.120000 0.010000 0.000000
						CHANNELS 3 Xrotation Yrotation Zrotation
						End Site
						{
							OFFSET 0.000000 -0.100000 0.000000
						}
					}
				}
				JOINT R_CLAVICLE
				{
					OFFSET 0.000000 0.020000 0.020000
					CHANNELS 3 Xrotation Yrotation Zrotation
					End Site
					{
						OFFSET -0.000000 -0.100000 0.000000
					}
				}
			}
			JOINT CHEST
			{
				OFFSET 0.000000 0.070000 0.028000
				CHANNELS 3 Xrotation Yrotation Zrotation
				End Site
				{
					OFFSET -0.000000 -0.100000 0.000000
				}
			}
			JOINT LEFT_PEC
			{
				OFFSET 0.082000 0.042000 0.119000
				CHANNELS 3 Xrotation Yrotation Zrotation
				End Site
				{
					OFFSET 0.000000 -0.100000 0.000000
				}
			}
			JOINT RIGHT_PEC
			{
				OFFSET -0.082000 0.042000 0.119000
				CHANNELS 3 Xrotation Yrotation Zrotation
				End Site
				{
					OFFSET 0.000000 -0.100000 0.000000
				}
			}
			JOINT UPPER_BACK
			{
				OFFSET 0.000000 0.017253 0.000000
				CHANNELS 3 Xrotation Yrotation Zrotation
				End Site
				{
					OFFSET -0.000000 -0.100000 0.000000
				}
			}
		}
		JOINT BELLY
		{
			OFFSET 0.000000 0.040000 0.028000
			CHANNELS 3 Xrotation Yrotation Zrotation
			End Site
			{
				OFFSET -0.000000 -0.100000 0.000000
			}
		}
		JOINT LOWER_BACK
		{
			OFFSET 0.000000 0.022848 -0.000000
			CHANNELS 3 Xrotation Yrotation Zrotation
			End Site
			{
				OFFSET -0.000000 -0.100000 0.000000
			}
		}
	}
	JOINT mHipRight
	{
		OFFSET -0.129000 -0.041000 0.034000
		CHANNELS 3 Xrotation Yrotation Zrotation
		JOINT mKneeRight
		{
			OFFSET 0.049000 -0.491000 -0.001000
			CHANNELS 3 Xrotation Yrotation Zrotation
			JOINT mAnkleRight
			{
				OFFSET -0.000000 -0.468000 -0.029000
				CHANNELS 3 Xrotation Yrotation Zrotation
				JOINT mFootRight
				{
					OFFSET 0.000000 -0.061000 0.112000
					CHANNELS 3 Xrotation Yrotation Zrotation
					JOINT mToeRight
					{
						OFFSET 0.000000 0.000000 0.109000
						CHANNELS 3 Xrotation Yrotation Zrotation
						End Site
						{
							OFFSET -0.000000 -0.100000 0.000000
						}
					}
				}
				JOINT R_FOOT
				{
					OFFSET 0.000000 -0.041000 0.077000
					CHANNELS 3 Xrotation Yrotation Zrotation
					End Site
					{
						OFFSET 0.000000 -0.100000 0.000000
					}
				}
			}
			JOINT R_LOWER_LEG
			{
				OFFSET -0.000000 -0.200000 -0.020000
				CHANNELS 3 Xrotation Yrotation Zrotation
				End Site
				{
					OFFSET -0.000000 -0.100000 0.000000
				}
			}
		}
		JOINT R_UPPER_LEG
		{
			OFFSET 0.050000 -0.220000 -0.020000
			CHANNELS 3 Xrotation Yrotation Zrotation
			End Site
			{
				OFFSET -0.000000 -0.100000 0.000000
			}
		}
	}
	JOINT mHipLeft
	{
		OFFSET 0.127000 -0.041000 0.034000
		CHANNELS 3 Xrotation Yrotation Zrotation
		JOINT mKneeLeft
		{
			OFFSET -0.046000 -0.491000 -0.001000
			CHANNELS 3 Xrotation Yrotation Zrotation
			JOINT mAnkleLeft
			{
				OFFSET 0.001000 -0.468000 -0.029000
				CHANNELS 3 Xrotation Yrotation Zrotation
				JOINT mFootLeft
				{
					OFFSET 0.000000 -0.061000 0.112000
					CHANNELS 3 Xrotation Yrotation Zrotation
					JOINT mToeLeft
					{
						OFFSET 0.000000 0.000000 0.109000
						CHANNELS 3 Xrotation Yrotation Zrotation
						End Site
						{
							OFFSET -0.000000 -0.100000 0.000000
						}
					}
				}
				JOINT L_FOOT
				{
					OFFSET 0.000000 -0.041000 0.077000
					CHANNELS 3 Xrotation Yrotation Zrotation
					End Site
					{
						OFFSET 0.000000 -0.100000 0.000000
					}
				}
			}
			JOINT L_LOWER_LEG
			{
				OFFSET -0.000000 -0.200000 -0.020000
				CHANNELS 3 Xrotation Yrotation Zrotation
				End Site
				{
					OFFSET -0.000000 -0.100000 0.000000
				}
			}
		}
		JOINT L_UPPER_LEG
		{
			OFFSET -0.050000 -0.220000 -0.020000
			CHANNELS 3 Xrotation Yrotation Zrotation
			End Site
			{
				OFFSET -0.000000 -0.100000 0.000000
			}
		}
	}
	JOINT PELVIS
	{
		OFFSET -0.000000 -0.020000 -0.010000
		CHANNELS 3 Xrotation Yrotation Zrotation
		End Site
		{
			OFFSET -0.000000 -0.100000 0.000000
		}
	}
	JOINT BUTT
	{
		OFFSET -0.000000 -0.100000 -0.060000
		CHANNELS 3 Xrotation Yrotation Zrotation
		End Site
		{
			OFFSET -0.000000 -0.100000 0.000000
		}
	}
}
MOTION
Frames: 4
Frame Time: 0.022222
0.000000 1.020322 0.000000 0.012797 -0.000000 -0.000000 -0.009974 0.000053 0.000728 -0.007397 0.000012 0.000294 9.724169 -0.000001 -0.000002 9.701078 -0.000001 -0.000002 0.000000 0.000022 -179.999991 -0.000002 -0.000000 -0.000000 -0.000002 -0.000000 -0.000000 -0.000002 -0.000000 -0.000000 -0.000000 0.000000 0.000000 -0.025324 8.904778 0.013049 -0.520969 -0.167789 -86.401777 0.000001 -0.112681 -0.000000 0.877007 -0.033608 -4.389155 -0.000000 -0.000001 0.000000 0.000002 -0.000000 0.000000 0.000001 0.000000 -0.000000 0.000000 -0.000001 0.000000 -3.702956 -6.907490 1.818051 -1.503623 15.313158 83.809932 0.000000 0.114848 -0.000000 1.041823 0.047456 5.216028 0.000001 -0.000003 0.000000 -0.000001 -0.000000 -0.000001 0.000000 -0.000001 -0.000000 0.000000 0.000000 0.000000 0.000000 0.000000 -0.000000 -0.000000 0.000000 -0.000000 -0.000000 0.000000 -0.000000 0.000000 0.000000 -0.000000 -0.000000 0.000000 0.000000 -0.000000 0.000000 0.000000 -0.100227 -0.002747 0.004686 0.156847 0.000591 -0.009565 0.110274 -0.011640 -0.007078 -0.000009 0.000015 -0.000027 0.000000 -0.000000 -0.000000 -0.000009 0.000015 -0.000027 -0.000001 0.000000 -0.000000 -0.000000 0.000003 0.000137 -0.099873 0.000511 -0.005233 0.156651 0.000923 -0.009769 0.112416 0.016109 -0.019158 0.000013 -0.000015 0.000027 0.000000 -0.000000 0.000000 0.000013 -0.000016 0.000025 0.000000 0.000001 0.000000 0.000000 0.000002 -0.000101 -0.000000 -0.000000 -0.000000 -0.000000 -0.000000 -0.000000 
0.000000 0.883034 0.000000 0.050437 -0.000000 -0.000000 -0.039311 0.000209 0.002869 -0.029153 0.000046 0.001161 9.722837 -0.000001 -0.000002 9.813415 -0.000001 -0.000002 0.000000 0.000022 -179.999991 -0.000002 0.000000 0.000000 -0.000002 0.000000 0.000000 -0.000002 0.000000 0.000000 0.000000 -0.000000 0.000000 -0.099799 8.849482 0.051387 -0.418246 -0.492411 -86.538674 0.000001 -0.444625 -0.000000 0.868586 -0.032967 -4.346936 0.000001 -0.000001 0.000000 -0.000000 0.000000 0.000000 0.000001 -0.000000 -0.000000 -0.000000 -0.000001 -0.000000 -3.907371 -6.862603 1.765515 -1.396692 15.635454 83.925253 -0.000001 0.453200 0.000000 1.029428 0.046331 5.153813 0.000000 -0.000000 -0.000000 -0.000001 -0.000001 -0.000000 -0.000000 -0.000001 0.000000 0.000000 -0.000001 -0.000000 0.000000 0.000001 -0.000000 -0.000000 0.000001 -0.000000 -0.000000 0.000001 -0.000000 0.000000 0.000001 -0.000000 0.000000 -0.000001 0.000000 0.000000 -0.000001 0.000000 -0.395367 -0.010884 0.018458 0.620207 0.002173 -0.038237 0.435119 -0.046012 -0.027794 -0.000005 0.000016 -0.000033 -0.000000 0.000000 0.000000 -0.000007 0.000016 -0.000030 -0.000002 0.000001 0.000000 -0.000000 0.000003 0.000135 -0.393970 0.002071 -0.020634 0.619413 0.003487 -0.038346 0.443651 0.063351 -0.075783 0.000008 -0.000013 0.000029 0.000000 -0.000000 -0.000000 0.000010 -0.000013 0.000027 -0.000001 0.000000 0.000000 0.000000 0.000002 -0.000100 0.000000 0.000000 -0.000000 0.000000 0.000000 -0.000000 
0.000000 0.659255 0.000000 0.111792 -0.000000 -0.000000 -0.087130 0.000460 0.006359 -0.064614 0.000101 0.002572 9.720655 -0.000001 -0.000002 9.920764 -0.000001 -0.000002 0.000002 0.000022 -179.999991 0.000000 -0.000000 -0.000000 0.000000 -0.000000 -0.000000 0.000000 -0.000000 -0.000000 0.000000 -0.000000 -0.000000 -0.221145 8.757978 0.113737 -0.251141 -1.023914 -86.715105 0.000001 -0.987371 0.000000 0.854859 -0.031930 -4.278115 -0.000000 0.000001 0.000000 0.000001 0.000000 -0.000000 0.000001 -0.000000 0.000000 0.000000 -0.000000 0.000000 -4.118848 -6.786906 1.687347 -1.223685 16.153399 84.079977 0.000000 1.006508 0.000000 1.009220 0.044528 5.052390 -0.000000 -0.000000 0.000000 -0.000000 -0.000001 0.000001 -0.000001 -0.000001 0.000000 -0.000000 -0.000000 -0.000000 0.000000 0.000000 -0.000000 -0.000000 -0.000000 -0.000000 -0.000000 -0.000000 -0.000000 0.000000 0.000000 -0.000000 0.000001 -0.000000 -0.000000 0.000001 -0.000000 0.000000 -0.877580 -0.024332 0.040870 1.382052 0.004271 -0.085398 0.966177 -0.102453 -0.061245 -0.000007 0.000014 -0.000030 -0.000000 0.000000 0.000000 -0.000008 0.000013 -0.000028 -0.000001 0.000001 0.000000 -0.000000 0.000003 0.000137 -0.874471 0.004788 -0.045781 1.380230 0.007201 -0.085372 0.985432 0.139896 -0.168970 0.000012 -0.000012 0.000027 0.000000 -0.000000 0.000000 0.000013 -0.000013 0.000027 -0.000001 0.000001 0.000000 0.000000 0.000002 -0.000101 -0.000000 -0.000000 0.000000 -0.000000 -0.000000 0.000000 
0.000000 0.353102 0.000000 0.195735 -0.000000 -0.000000 -0.152554 0.000799 0.011134 -0.113131 0.000175 0.004504 9.717677 -0.000001 -0.000002 10.023239 -0.000001 -0.000002 0.000002 0.000022 -179.999991 -0.000000 0.000000 -0.000000 -0.000000 0.000000 -0.000000 -0.000000 0.000000 -0.000000 0.000000 -0.000000 -0.000000 -0.387036 8.631800 0.198739 -0.023291 -1.755780 -86.928084 -0.000000 -1.733252 -0.000000 0.836076 -0.030540 -4.183954 0.000000 -0.000002 0.000000 -0.000001 0.000000 0.000000 -0.000001 0.000000 0.000000 0.000000 -0.000001 -0.000000 -4.336732 -6.681679 1.584966 -0.987765 16.860621 84.271345 -0.000000 1.767065 -0.000000 0.981567 0.042117 4.913612 0.000000 0.000001 -0.000000 0.000000 -0.000001 0.000000 -0.000000 -0.000001 -0.000000 -0.000000 0.000000 -0.000000 0.000000 0.000000 -0.000000 0.000000 0.000000 -0.000000 0.000000 0.000000 -0.000000 0.000000 0.000000 -0.000000 0.000000 -0.000001 0.000000 0.000000 -0.000001 0.000000 -1.539553 -0.043098 0.071450 2.437625 0.006140 -0.150781 1.695829 -0.180511 -0.106354 -0.000007 0.000017 -0.000028 0.000000 0.000000 0.000000 -0.000009 0.000017 -0.000028 -0.000001 -0.000000 0.000000 -0.000000 0.000003 0.000137 -1.534082 0.008862 -0.080262 2.434278 0.011314 -0.150595 1.730377 0.243672 -0.298240 0.000009 -0.000013 0.000027 0.000000 -0.000000 0.000000 0.000010 -0.000014 0.000026 -0.000000 0.000001 0.000000 0.000000 0.000002 -0.000101 -0.000000 -0.000000 -0.000000 -0.000000 -0.000000 -0.000000 
